<svg xmlns="http://www.w3.org/2000/svg" viewBox="0 0 176.23 16.25"><defs><style>.cls-1{fill:#3fa9f5;}.cls-2{fill:#fff;}</style></defs><title>LETRARecurso 5</title><g id="Capa_2" data-name="Capa 2"><g id="Capa_1-2" data-name="Capa 1"><rect class="cls-1" y="12.51" width="3.47" height="3.47"/><path class="cls-2" d="M6.27,3.35h.65a3.15,3.15,0,0,1,2,.56A2,2,0,0,1,9.64,5.6v0A2.07,2.07,0,0,1,9,7.27a2.88,2.88,0,0,1-2,.6H6.27V11L9.57,16h4.06L9.78,10.35a5.34,5.34,0,0,0,2.44-1.77,5,5,0,0,0,.94-3.12v0a4.83,4.83,0,0,0-1.57-3.83A6.39,6.39,0,0,0,7.21.22H0V3.35H6.27Z"/><path class="cls-2" d="M14.5,16V.27H26.34V3.34H17.92V6.53h7.4V9.61h-7.4v3.3h8.53V16Z"/><path class="cls-2" d="M28,16V.27h3.46V16Z"/><path class="cls-2" d="M45.89,16V5.72l-4.42,6.72h-.09L37,5.79V16H33.59V.27h3.72l4.13,6.64L45.57.27H49.3V16Z"/><path class="cls-2" d="M59.2,9.72V16H55.74V9.79L49.7.27h4l3.74,6.31L61.31.27h3.93Z"/><path class="cls-2" d="M85.47,11.22a7.22,7.22,0,0,1-1.72,2.5,8.29,8.29,0,0,1-2.64,1.66,9.27,9.27,0,0,1-3.38.6H71.6V.27h6.13a9.49,9.49,0,0,1,3.38.59,8.09,8.09,0,0,1,2.64,1.65A7.23,7.23,0,0,1,85.47,5a7.71,7.71,0,0,1,.61,3.09v.05A7.75,7.75,0,0,1,85.47,11.22Zm-3-3.09a5.15,5.15,0,0,0-.34-1.91,4.61,4.61,0,0,0-1-1.51,4.23,4.23,0,0,0-1.49-1,5.06,5.06,0,0,0-1.93-.35H75.05v9.47h2.68a5.47,5.47,0,0,0,1.93-.33,4.23,4.23,0,0,0,1.49-1,4.69,4.69,0,0,0,1-1.48,5,5,0,0,0,.34-1.91Z"/><path class="cls-2" d="M87.4,16V.27H99.23V3.34H90.82V6.53h7.4V9.61h-7.4v3.3h8.53V16Z"/><path class="cls-2" d="M100.69,16V.27h3.46V12.86H112V16Z"/><path class="cls-2" d="M133.4,11.28A8,8,0,0,1,129,15.61a8.63,8.63,0,0,1-3.36.64,8.55,8.55,0,0,1-3.35-.64,8.18,8.18,0,0,1-2.63-1.73,7.63,7.63,0,0,1-1.73-2.55,8.13,8.13,0,0,1-.62-3.16v0A7.92,7.92,0,0,1,118,5,8,8,0,0,1,122.34.64a9.09,9.09,0,0,1,6.7,0,8.29,8.29,0,0,1,2.64,1.73,7.82,7.82,0,0,1,1.73,2.56A8.08,8.08,0,0,1,134,8.08v.05A8.08,8.08,0,0,1,133.4,11.28Zm-3-3.15a5.27,5.27,0,0,0-.35-1.91,4.8,4.8,0,0,0-6.33-2.65,4.25,4.25,0,0,0-1.48,1.05,5,5,0,0,0-1,1.56,5.25,5.25,0,0,0-.35,1.9v.05a5.21,5.21,0,0,0,.35,1.9,4.7,4.7,0,0,0,1,1.58,5,5,0,0,0,1.5,1.06,4.84,4.84,0,0,0,3.83,0,4.32,4.32,0,0,0,1.5-1,5,5,0,0,0,1-1.56,5.21,5.21,0,0,0,.35-1.9Z"/><path class="cls-2" d="M144.89,16l-3.37-5H138.8v5h-3.45V.27h7.18a6.43,6.43,0,0,1,4.37,1.37,4.8,4.8,0,0,1,1.56,3.81v0a4.94,4.94,0,0,1-.93,3.11,5.44,5.44,0,0,1-2.44,1.76L148.93,16ZM145,5.63A2,2,0,0,0,144.24,4a3.21,3.21,0,0,0-2-.56H138.8V7.9h3.51a2.89,2.89,0,0,0,2-.6A2.07,2.07,0,0,0,145,5.68Z"/><path class="cls-2" d="M162.75,13.56a3.67,3.67,0,0,1-1.19,1.35,5.45,5.45,0,0,1-1.86.8,10,10,0,0,1-2.41.27h-7.46V.27h7.28a6,6,0,0,1,3.8,1.1,3.58,3.58,0,0,1,1.38,3v0a3.93,3.93,0,0,1-.17,1.19,3.64,3.64,0,0,1-.45.93,3.46,3.46,0,0,1-.64.73,4.6,4.6,0,0,1-.79.54,5.29,5.29,0,0,1,2.14,1.4,3.59,3.59,0,0,1,.78,2.46v0A4.18,4.18,0,0,1,162.75,13.56Zm-3.87-8.64a1.4,1.4,0,0,0-.59-1.21,2.93,2.93,0,0,0-1.68-.41H153.2V6.62h3.18a3.62,3.62,0,0,0,1.82-.39A1.36,1.36,0,0,0,158.88,5Zm.87,6.28a1.46,1.46,0,0,0-.61-1.24,3.22,3.22,0,0,0-1.95-.46h-4V13h4.1a3.38,3.38,0,0,0,1.8-.41,1.44,1.44,0,0,0,.65-1.29Z"/><path class="cls-2" d="M164.28,16V.27h11.84V3.34H167.7V6.53h7.41V9.61H167.7v3.3h8.53V16Z"/></g></g></svg>